# xmcd CD database file
#
# Track frame offsets:
#	182
#	27000
#	52640
#	73897
#	101122
#	120762
#	144452
#	171382
#	192977
#	218605
#	237575
#	258980
#
# Disc length: 3728 seconds
#
# Revision: 4
# Processed by: cddbd v1.4PL0 Copyright (c) Steve Scherf et al.
# Submitted via: CDex 1.40Beta9
#
DISCID=a50e8e0c
DTITLE=Miguel Bosé - Bajo el signo de Caín
DYEAR=1993
DGENRE=Alternative
TTITLE0=Te comería el corazón
TTITLE1=Lo que hay es lo que vez
TTITLE2=Si tu no vuelves
TTITLE3=Nada particular
TTITLE4=Mayo
TTITLE5=Bajo el signo de Caín
TTITLE6=Wako-Shaman
TTITLE7=Imagináte que te quiero
TTITLE8=Sara
TTITLE9=Sol forastero
TTITLE10=La Americana
TTITLE11=Gota a gota
EXTD=YEAR: 1993 ID3G: 20
EXTT0=
EXTT1=
EXTT2=
EXTT3=
EXTT4=
EXTT5=
EXTT6=
EXTT7=
EXTT8=
EXTT9=
EXTT10=
EXTT11=
PLAYORDER=
